<svg xmlns="http://www.w3.org/2000/svg" xmlns:xlink="http://www.w3.org/1999/xlink" version="1.1"
    width="1000" height="1000" viewBox="0 0 1000 1000" xml:space="preserve">
<desc>Created with Fabric.js 3.5.0</desc>
<defs>
</defs>
<rect x="0" y="0" width="100%" height="100%" fill="transparent"/>
<g transform="matrix(9.855 0 0 9.855 499.9988 499.9986)" id="445659">
<path style="stroke: none; stroke-width: 1; stroke-dasharray: none; stroke-linecap: butt; stroke-dashoffset: 0; stroke-linejoin: miter; stroke-miterlimit: 4; is-custom-font: none; font-file-url: none; fill: #111111; fill-rule: nonzero; opacity: 1;" vector-effect="non-scaling-stroke" transform=" translate(-51.0795, -50.001)" d="M 51.58 5.867 l -1 -1.732 L 11.108 26.924 v 46.154 l 9.661 5.578 L 60.74 55.578 V 44.424 l -7.66 -4.423 l 4.062 -2.345 l 7.661 4.423 v 15.846 L 26.331 80.135 l 1 1.732 l 39.472 -22.789 V 40.924 l -7.66 -4.423 l 4.062 -2.345 l 7.66 4.422 v 22.846 L 32.394 83.635 l 1 1.732 l 39.471 -22.789 V 37.424 l -7.66 -4.423 l 4.062 -2.345 l 7.66 4.422 v 29.846 L 38.456 87.135 l 1 1.732 l 39.471 -22.789 V 33.924 l -7.66 -4.423 l 4.062 -2.345 l 7.661 4.422 v 36.846 L 44.518 90.635 l 1 1.732 l 39.472 -22.789 V 30.424 l -7.66 -4.423 l 4.062 -2.345 l 7.66 4.422 v 43.846 L 50.58 94.135 l 1 1.732 l 39.471 -22.789 V 26.924 l -9.66 -5.578 L 41.42 44.424 v 11.154 l 7.66 4.423 l -4.062 2.345 l -7.661 -4.423 V 42.078 l 38.472 -22.211 l -1 -1.732 L 35.357 40.924 v 18.154 l 7.66 4.423 l -4.062 2.345 l -7.661 -4.422 V 38.578 l 26.348 -15.211 v 0 l 12.124 -7 l -1 -1.732 L 29.295 37.424 v 25.154 l 7.661 4.423 l -4.062 2.345 l -7.66 -4.422 V 35.078 l 38.471 -22.211 l -1 -1.732 L 23.233 33.924 v 32.154 l 7.66 4.423 l -4.062 2.345 l -7.661 -4.422 V 31.578 L 57.643 9.367 l -1 -1.732 L 17.171 30.424 v 39.154 l 7.66 4.423 l -4.062 2.345 l -7.661 -4.422 V 28.078 L 51.58 5.867 z M 43.42 54.424 v -8.846 l 7.66 -4.422 l 7.66 4.422 v 8.846 l -7.66 4.422 L 43.42 54.424 z" stroke-linecap="round"/>
</g>
</svg>